<?xml version="1.0" encoding="UTF-8" standalone="no"?>
<!-- Created with Inkscape (http://www.inkscape.org/) -->

<svg
   width="32"
   height="32"
   viewBox="0 0 32 32"
   version="1.1"
   id="SVGRoot"
   sodipodi:docname="addrbook.svg"
   inkscape:version="1.1 (c68e22c387, 2021-05-23)"
   xmlns:inkscape="http://www.inkscape.org/namespaces/inkscape"
   xmlns:sodipodi="http://sodipodi.sourceforge.net/DTD/sodipodi-0.dtd"
   xmlns="http://www.w3.org/2000/svg"
   xmlns:svg="http://www.w3.org/2000/svg"
   xmlns:rdf="http://www.w3.org/1999/02/22-rdf-syntax-ns#"
   xmlns:cc="http://creativecommons.org/ns#"
   xmlns:dc="http://purl.org/dc/elements/1.1/">
  <sodipodi:namedview
     id="namedview840"
     pagecolor="#ffffff"
     bordercolor="#666666"
     borderopacity="1.0"
     inkscape:pageshadow="2"
     inkscape:pageopacity="0.0"
     inkscape:pagecheckerboard="0"
     inkscape:document-units="px"
     showgrid="false"
     inkscape:zoom="14.53872"
     inkscape:cx="12.587077"
     inkscape:cy="16.094952"
     inkscape:window-width="1366"
     inkscape:window-height="701"
     inkscape:window-x="0"
     inkscape:window-y="0"
     inkscape:window-maximized="1"
     inkscape:current-layer="layer1"
     inkscape:snap-bbox="true"
     inkscape:bbox-paths="true"
     inkscape:bbox-nodes="true"
     inkscape:snap-bbox-edge-midpoints="true"
     inkscape:snap-bbox-midpoints="true"
     inkscape:snap-object-midpoints="true"
     width="32px">
    <inkscape:grid
       type="xygrid"
       id="grid903" />
  </sodipodi:namedview>
  <defs
     id="defs835" />
  <g
     inkscape:label="Warstwa 1"
     inkscape:groupmode="layer"
     id="layer1">
    <rect
       style="fill:#ffffff;stroke:#000000;stroke-width:0.2;stroke-linecap:round;stroke-linejoin:round;stroke-miterlimit:4;stroke-dasharray:none"
       id="rect994"
       width="28.922577"
       height="28.943165"
       x="1.7902675"
       y="1.4870211" />
    <rect
       style="fill:#ffffff;stroke:#000000;stroke-width:0.779785;stroke-linecap:round;stroke-linejoin:round;stroke-miterlimit:4;stroke-dasharray:none"
       id="rect1270"
       width="12.747519"
       height="19.382261"
       x="4.453846"
       y="2.5641675"
       transform="matrix(0.93969109,0.34202435,0,1,0,0)" />
    <rect
       style="fill:#b3b3b3;stroke:#b3b3b3;stroke-width:0.779785;stroke-linecap:round;stroke-linejoin:round;stroke-miterlimit:4;stroke-dasharray:none"
       id="rect1502"
       width="9.4810581"
       height="1.8633307"
       x="6.0323267"
       y="5.0138917"
       transform="matrix(0.93969109,0.34202435,0,1,0,0)" />
    <rect
       style="fill:#b3b3b3;stroke:#b3b3b3;stroke-width:0.779785;stroke-linecap:round;stroke-linejoin:round;stroke-miterlimit:4;stroke-dasharray:none"
       id="rect1502-6"
       width="9.4810581"
       height="1.8633307"
       x="6.0877309"
       y="8.7121735"
       transform="matrix(0.93969109,0.34202435,0,1,0,0)" />
    <rect
       style="fill:#b3b3b3;stroke:#b3b3b3;stroke-width:0.779785;stroke-linecap:round;stroke-linejoin:round;stroke-miterlimit:4;stroke-dasharray:none"
       id="rect1502-7"
       width="9.4810581"
       height="1.8633307"
       x="6.0870762"
       y="12.342885"
       transform="matrix(0.93969109,0.34202435,0,1,0,0)" />
    <rect
       style="fill:#b3b3b3;stroke:#b3b3b3;stroke-width:0.779785;stroke-linecap:round;stroke-linejoin:round;stroke-miterlimit:4;stroke-dasharray:none"
       id="rect1502-5"
       width="9.4810581"
       height="1.8633307"
       x="6.0862522"
       y="16.286095"
       transform="matrix(0.93969109,0.34202435,0,1,0,0)" />
    <rect
       style="fill:#ffffff;stroke:#000000;stroke-width:0.779785;stroke-linecap:round;stroke-linejoin:round;stroke-miterlimit:4;stroke-dasharray:none"
       id="rect1270-3"
       width="12.747519"
       height="19.382261"
       x="17.387777"
       y="14.394497"
       transform="matrix(0.93969109,-0.34202435,0,1,0,0)" />
    <rect
       style="fill:#b3b3b3;stroke:#b3b3b3;stroke-width:0.779785;stroke-linecap:round;stroke-linejoin:round;stroke-miterlimit:4;stroke-dasharray:none"
       id="rect1502-56"
       width="9.4810581"
       height="1.8633307"
       x="18.966259"
       y="16.844221"
       transform="matrix(0.93969109,-0.34202435,0,1,0,0)" />
    <rect
       style="fill:#b3b3b3;stroke:#b3b3b3;stroke-width:0.779785;stroke-linecap:round;stroke-linejoin:round;stroke-miterlimit:4;stroke-dasharray:none"
       id="rect1502-6-2"
       width="9.4810581"
       height="1.8633307"
       x="19.021664"
       y="20.542503"
       transform="matrix(0.93969109,-0.34202435,0,1,0,0)" />
    <rect
       style="fill:#b3b3b3;stroke:#b3b3b3;stroke-width:0.779785;stroke-linecap:round;stroke-linejoin:round;stroke-miterlimit:4;stroke-dasharray:none"
       id="rect1502-7-9"
       width="9.4810581"
       height="1.8633307"
       x="19.021009"
       y="24.173216"
       transform="matrix(0.93969109,-0.34202435,0,1,0,0)" />
    <rect
       style="fill:#b3b3b3;stroke:#b3b3b3;stroke-width:0.779785;stroke-linecap:round;stroke-linejoin:round;stroke-miterlimit:4;stroke-dasharray:none"
       id="rect1502-5-1"
       width="9.4810581"
       height="1.8633307"
       x="19.020185"
       y="28.116423"
       transform="matrix(0.93969109,-0.34202435,0,1,0,0)" />
    <text
       xml:space="preserve"
       style="font-size:2.47188px;line-height:1.25;font-family:sans-serif;stroke-width:1"
       x="20.381281"
       y="18.598898"
       id="text5132"
       transform="matrix(0.99999303,-0.36397277,0,1.000007,0,0)"><tspan
         sodipodi:role="line"
         id="tspan5130"
         x="20.381281"
         y="18.598898"
         style="font-size:2.47188px;stroke-width:1">123</tspan></text>
    <text
       xml:space="preserve"
       style="font-size:2.47188px;line-height:1.25;font-family:sans-serif;stroke-width:1"
       x="20.523567"
       y="22.297155"
       id="text7446"
       transform="matrix(0.99999303,-0.36397277,0,1.000007,0,0)"><tspan
         sodipodi:role="line"
         id="tspan7444"
         x="20.523567"
         y="22.297155"
         style="font-size:2.47188px;stroke-width:1">456</tspan></text>
    <text
       xml:space="preserve"
       style="font-size:2.47188px;line-height:1.25;font-family:sans-serif;stroke-width:1"
       x="20.500706"
       y="25.927841"
       id="text9918"
       transform="matrix(0.99999303,-0.36397277,0,1.000007,0,0)"><tspan
         sodipodi:role="line"
         id="tspan9916"
         x="20.500706"
         y="25.927841"
         style="font-size:2.47188px;stroke-width:1">789</tspan></text>
    <text
       xml:space="preserve"
       style="font-size:2.47188px;line-height:1.25;font-family:sans-serif;stroke-width:1"
       x="20.522179"
       y="30.03747"
       id="text12598"
       transform="matrix(0.99999303,-0.36397277,0,1.000007,0,0)"><tspan
         sodipodi:role="line"
         id="tspan12596"
         x="20.522179"
         y="30.03747"
         style="stroke-width:1">012</tspan></text>
    <text
       xml:space="preserve"
       style="font-size:2.47188px;line-height:1.25;font-family:sans-serif;stroke-width:1"
       x="7.8738189"
       y="6.8106737"
       id="text13946"
       transform="matrix(0.99999303,0.36397277,0,1.000007,0,0)"><tspan
         sodipodi:role="line"
         id="tspan13944"
         x="7.8738189"
         y="6.8106737"
         style="stroke-width:1">ABC</tspan></text>
    <text
       xml:space="preserve"
       style="font-size:2.47188px;line-height:1.25;font-family:sans-serif;stroke-width:1"
       x="7.9209375"
       y="10.50893"
       id="text15614"
       transform="matrix(0.99999303,0.36397277,0,1.000007,0,0)"><tspan
         sodipodi:role="line"
         id="tspan15612"
         x="7.9209375"
         y="10.50893"
         style="stroke-width:1">DEF</tspan></text>
    <text
       xml:space="preserve"
       style="font-size:2.47188px;line-height:1.25;font-family:sans-serif;stroke-width:1"
       x="7.9734688"
       y="14.139616"
       id="text16688"
       transform="matrix(0.99999303,0.36397277,0,1.000007,0,0)"><tspan
         sodipodi:role="line"
         id="tspan16686"
         x="7.9734688"
         y="14.139616"
         style="stroke-width:1">GHI</tspan></text>
    <text
       xml:space="preserve"
       style="font-size:2.47188px;line-height:1.25;font-family:sans-serif;stroke-width:1"
       x="8.1506691"
       y="18.065495"
       id="text17366"
       transform="matrix(0.99999303,0.36397277,0,1.000007,0,0)"><tspan
         sodipodi:role="line"
         id="tspan17364"
         x="8.1506691"
         y="18.065495"
         style="stroke-width:1">JKL</tspan></text>
    <path
       style="fill:#80ffff;fill-opacity:1;stroke:none;stroke-width:0.755904;stroke-linecap:round;stroke-linejoin:round;stroke-miterlimit:4;stroke-dasharray:none"
       d="M 1.9173321,15.966139 V 1.6206038 H 16.262667 30.608002 V 15.966139 30.311673 H 16.262667 1.9173321 Z m 20.4689569,9.792514 6.022096,-2.193979 0.01613,-9.792513 c 0.0137,-8.3054079 0.0027,-9.7925137 -0.07211,-9.7925137 -0.04853,0 -2.781412,0.979895 -6.07306,2.1775443 C 18.987711,7.3548411 16.265855,8.33331 16.230788,8.3315662 16.195722,8.329823 13.485723,7.3499279 10.208568,6.1540218 6.931413,4.958116 4.2128811,3.9796473 4.1673856,3.9796473 c -0.067498,0 -0.079749,1.8029213 -0.066577,9.7982977 l 0.016143,9.798299 5.9931614,2.18417 c 3.29624,1.201292 6.051869,2.18598 6.123623,2.188193 0.07175,0.0023 2.840402,-0.983267 6.152554,-2.189954 z"
       id="path21477" />
  </g>
  <metadata
     id="metadata3017">
    <rdf:RDF>
      <cc:Work
         rdf:about="">
        <dc:creator>
          <cc:Agent>
            <dc:title>Bogdan 'bogdro' Drozdowski</dc:title>
          </cc:Agent>
        </dc:creator>
      </cc:Work>
    </rdf:RDF>
  </metadata>
</svg>
